<svg xmlns="http://www.w3.org/2000/svg" width="32" height="35" viewBox="0 0 32 35" fill="none">
<path d="M7.10863 2.87787L2.74292 8.69046V29.0345C2.74292 29.8053 3.04956 30.5446 3.59538 31.0896C4.1412 31.6346 4.88149 31.9408 5.6534 31.9408H26.0267C26.7986 31.9408 27.5389 31.6346 28.0847 31.0896C28.6306 30.5446 28.9372 29.8053 28.9372 29.0345V8.69046L24.5715 2.87787H7.10863Z" stroke="white" stroke-width="2.5" stroke-linecap="round" stroke-linejoin="round"/>
<path d="M2.74292 8.69049H28.9372" stroke="white" stroke-width="2.5" stroke-linecap="round" stroke-linejoin="round"/>
<path d="M21.6609 14.503C21.6609 16.0446 21.0477 17.523 19.956 18.6131C18.8644 19.7032 17.3838 20.3156 15.84 20.3156C14.2962 20.3156 12.8156 19.7032 11.724 18.6131C10.6323 17.523 10.019 16.0446 10.019 14.503" stroke="white" stroke-width="2.5" stroke-linecap="round" stroke-linejoin="round"/>
</svg>